<svg id="Layer_1" data-name="Layer 1" xmlns="http://www.w3.org/2000/svg" viewBox="0 0 1469.55 680.95"><path d="M266.85,417.68v-191H226.66V453.33H376.41V417.68Z"/><path d="M508.28,226.66l-24.69,40.55c-16.74,28.52-28.15,48.19-33.91,58.45l-1.53,2.7-1.49-2.72c-2.42-4.36-14.38-24.46-34.57-58.13l-25-40.85H341.71l85.56,137.07v89.6h40.17V363.75l.26-.43,84.66-136.66Z"/><path d="M918,226.66H869.26L783,453.33h41.19l17.36-49.59,13.27-37.17,8.72-24.88c9.65-25.71,19.1-52.23,28.12-78.86l1.63-4.81,1.64,4.81c11.32,33.12,20.88,59.65,28.41,78.79l9.07,24.94,31,86.77h42.45Z"/><path d="M1155,226.66h-48.71l-86.27,226.67h41.19l17.38-49.59,13.25-37.17,8.72-24.88c9.63-25.67,19.08-52.2,28.1-78.86l1.63-4.81,1.64,4.81c11.24,32.86,20.8,59.37,28.43,78.79l9.07,24.94,30.94,86.77h42.47Z"/><polygon points="768.73 226.66 723.78 226.66 684.62 283.46 684.62 283.46 671.09 303.08 668.1 307.41 645.55 340.11 639.48 348.91 567.48 453.33 612.72 453.33 668.1 372.87 723.49 453.33 768.73 453.33 690.65 340.11 768.73 226.66"/><polygon points="651.14 282.81 612.42 226.66 567.48 226.66 628.61 315.49 651.14 282.81"/></svg>